<?xml version="1.0" encoding="UTF-8"?>
<svg id="Layer_1" xmlns="http://www.w3.org/2000/svg" version="1.1" viewBox="0 0 64 64">
  <!-- Generator: Adobe Illustrator 30.5.1, SVG Export Plug-In . SVG Version: 2.1.4 Build 3)  -->
  <defs>
    <style>
      .st0 {
        fill: #0024ff;
      }

      .st1 {
        fill: #00317b;
      }
    </style>
  </defs>
  <rect class="st0" width="64" height="64"/>
  <g>
    <path class="st1" d="M10.9,18.2c-.8-1.3,3.3-6.7,4.3-7.6s4.8-3.8,5.7-3.7,1.2.6,1.2.7c.2.2.2.4.2.6.3,2.1-1.6,2.2-3,3s-4,2.6-5.3,4.2-2,3.1-2.4,3.1-.7-.1-.7-.2Z"/>
    <path class="st1" d="M35.5,53.1s0,.2.2.3c.5.1,1,.1,1.4.3-2.7,1.8-5.7,2.3-8.8,1.4s-3.2-1.4-3.4-2.1-.1-1.5.1-1.7c.6-.4,5.6,1.2,6.7,1.4s3.2.2,3.8.4Z"/>
    <path class="st1" d="M52.8,17.5c0-2.6.1-5.1,0-7.7-3.7,0-7.3-.3-11-.2-1.2,0-1.2.4-2.4-.1-.6-.3-6.5-.6-7.4-.6-9.1.6-18.3,10.3-18.9,19.4-.2,3.2-.6,4.9-1.2,8-.9,5.2-.8,11.1.3,16.3.2.7,1.2,4.1,1.7,4.4,1,.6,1.3-.8,1.5-1.2,1.2-1.8,4.2-5.9,6-6.9,3.6-1.9,7.1.1,10.8.1,4.7,0,9.7-1.8,13.5-4.6,9.4-7,7.1-16.6,6.9-26.9ZM36.2,41.1c0,.4-.7,3-.9,3.2-.1,0-2.5.4-2.8.4-4.1,0-8.1-1.2-11.2-3.8-2.9-2.4-3-4.5-2.8-8.2.2-5,1.5-9.6,4.7-13.6,2.7-3.3,6.9-5.3,11.3-5.1.3.2,1.4,4.4,1.4,5.1.3,3.9-.8,7.6-.3,11.4.5,3.8,1,6.7.6,10.7ZM37.6,43.6c.9-4.4,2.7-8.4,2.4-13-.2-4.1-1.4-8-2.5-11.9-.4-1.4-.8-2.9-1.3-4.3,3.7.6,6.2,2.4,8.2,5.5,5.5,8.6,3.7,20.5-6.8,23.8Z"/>
  </g>
</svg>